<svg width="87" height="87" viewBox="0 0 87 87" fill="none" xmlns="http://www.w3.org/2000/svg">
<circle cx="43.7109" cy="43.4883" r="43" fill="#1580EB"/>
<circle cx="43.7109" cy="43.4883" r="22.5781" fill="#FF5E00"/>
<path d="M48.2022 44.5381C48.3924 44.1213 48.9201 43.7348 49.3755 43.6827C49.8309 43.6305 50.2456 43.2135 50.2969 42.758C50.3514 42.3057 50.7353 41.7756 51.1501 41.583C51.3591 41.4764 51.5292 41.3065 51.636 41.0976C51.7428 40.8887 51.781 40.6514 51.745 40.4196C51.6509 39.9707 51.8538 39.3487 52.1895 39.0399C52.3559 38.8735 52.4653 38.6586 52.502 38.4261C52.5386 38.1937 52.5006 37.9555 52.3934 37.746C52.2824 37.5207 52.2246 37.273 52.2243 37.0218C52.2241 36.7707 52.2815 36.5228 52.392 36.2973C52.4991 36.0876 52.5368 35.8494 52.4997 35.6169C52.4626 35.3845 52.3526 35.1698 52.1857 35.0038C51.8494 34.6924 51.647 34.0724 51.7386 33.625C51.7746 33.3926 51.7362 33.1547 51.629 32.9454C51.5218 32.7361 51.3512 32.566 51.1415 32.4595C50.9195 32.3413 50.7272 32.1743 50.579 31.971C50.4308 31.7678 50.3307 31.5336 50.2861 31.2861C50.249 31.0546 50.1398 30.8408 49.9741 30.6751C49.8083 30.5093 49.5945 30.4002 49.363 30.3631C49.1153 30.3199 48.8807 30.2206 48.6771 30.0731C48.4735 29.9255 48.3062 29.7334 48.188 29.5115C48.0813 29.3021 47.9107 29.1321 47.701 29.0261C47.4913 28.92 47.2533 28.8834 47.0214 28.9215C46.7725 28.9566 46.5189 28.9345 46.2798 28.857C46.0408 28.7794 45.8225 28.6483 45.6417 28.4738C45.3297 28.1349 44.7482 28.045 44.3494 28.2699C43.9507 28.4948 43.2966 28.4954 42.8991 28.2713C42.69 28.1628 42.4517 28.124 42.219 28.1605C41.9863 28.1971 41.7714 28.307 41.6056 28.4744C41.4253 28.6495 41.2073 28.781 40.9683 28.8591C40.7293 28.9371 40.4757 28.9595 40.2268 28.9246C39.9951 28.8876 39.7577 28.9252 39.5487 29.0319C39.3398 29.1386 39.1702 29.309 39.0645 29.5185C38.8727 29.9321 38.3449 30.3186 37.8895 30.3707C37.6577 30.4082 37.4436 30.5179 37.2779 30.6843C37.1121 30.8506 37.0032 31.0651 36.9666 31.297C36.923 31.5446 36.8235 31.779 36.6756 31.9824C36.5277 32.1857 36.3354 32.3526 36.1133 32.4704C35.9046 32.5779 35.7352 32.7486 35.6292 32.9581C35.5233 33.1676 35.4862 33.4052 35.5233 33.637C35.6125 34.0843 35.4112 34.7063 35.0756 35.0167C34.7399 35.3271 34.6468 35.9086 34.8717 36.3106C35.0966 36.7077 35.0972 37.3618 34.8731 37.7593C34.7661 37.9693 34.7285 38.2077 34.7655 38.4404C34.8026 38.6731 34.9125 38.8881 35.0794 39.0544C35.4172 39.3609 35.6181 39.9826 35.5297 40.4332C35.493 40.6647 35.5305 40.9018 35.6369 41.1106C35.7433 41.3194 35.9131 41.4892 36.1219 41.5955C36.5388 41.7873 36.922 42.3167 36.9758 42.7689C37.0311 43.2243 37.4449 43.6406 37.9004 43.6918C38.3559 43.7431 38.8844 44.1302 39.077 44.5451C39.184 44.7536 39.3541 44.9228 39.563 45.0288C39.772 45.1348 40.0091 45.172 40.2404 45.1351C40.6893 45.0459 41.3113 45.2456 41.6201 45.5828C41.7867 45.7491 42.0015 45.8583 42.2339 45.8949C42.4664 45.9316 42.7044 45.8937 42.914 45.7867C43.3111 45.5619 43.9652 45.5612 44.3643 45.7854C44.7635 46.0095 45.3448 45.9153 45.6562 45.579C45.9676 45.2396 46.586 45.0403 47.035 45.1287C47.267 45.1659 47.5048 45.1288 47.7144 45.0227C47.924 44.9166 48.0947 44.747 48.2022 44.5381ZM43.6377 42.5171C42.1813 42.5185 40.7841 41.9413 39.7533 40.9124C38.7225 39.8836 38.1426 38.4874 38.1413 37.0311C38.1399 35.5747 38.7171 34.1774 39.746 33.1466C40.7748 32.1159 42.171 31.536 43.6274 31.5346C45.0837 31.5333 46.481 32.1105 47.5118 33.1393C48.5425 34.1682 49.1224 35.5643 49.1238 37.0207C49.1251 38.4771 48.5479 39.8743 47.5191 40.9051C46.4902 41.9359 45.0941 42.5158 43.6377 42.5171ZM37.1401 45.7696L35.1433 57.1561L40.1945 56.4019L44.6883 58.83L46.6771 47.4887C45.0631 47.9623 43.361 48.0535 41.7056 47.7551C40.0503 47.4567 38.4871 46.7769 37.1401 45.7696ZM50.0381 45.8349C49.5341 46.202 48.9995 46.5251 48.4401 46.8006L47.2385 53.6432L52.6769 50.6857L50.0381 45.8349Z" fill="white"/>
</svg>
