<svg width="87" height="87" viewBox="0 0 87 87" fill="none" xmlns="http://www.w3.org/2000/svg">
<circle cx="43.7109" cy="43.4883" r="43" fill="#1580EB"/>
<circle cx="43.7109" cy="43.4883" r="22.5781" fill="#FF5E00"/>
<path d="M42.7482 57.1246V30.761H44.4371V57.1246H42.7482ZM48.0312 38.9379C47.9214 37.9629 47.4683 37.2077 46.6719 36.6722C45.8755 36.1299 44.8731 35.8587 43.6648 35.8587C42.7997 35.8587 42.0514 35.996 41.4197 36.2706C40.7881 36.5384 40.2972 36.9091 39.9471 37.3828C39.6038 37.8497 39.4322 38.3817 39.4322 38.979C39.4322 39.4802 39.5489 39.9128 39.7823 40.2766C40.0226 40.6405 40.335 40.946 40.7195 41.1932C41.1108 41.4335 41.5296 41.636 41.9759 41.8008C42.4221 41.9587 42.8512 42.0891 43.2631 42.1921L45.3228 42.7276C45.9956 42.8924 46.6856 43.1155 47.3928 43.397C48.0999 43.6785 48.7556 44.0492 49.3597 44.5092C49.9639 44.9692 50.4514 45.5391 50.8221 46.2188C51.1997 46.8984 51.3885 47.712 51.3885 48.6594C51.3885 49.854 51.0795 50.9148 50.4616 51.8416C49.8506 52.7685 48.9615 53.4996 47.7944 54.0352C46.6341 54.5707 45.2301 54.8384 43.5824 54.8384C42.0033 54.8384 40.6371 54.5878 39.4837 54.0866C38.3303 53.5855 37.4274 52.8749 36.7752 51.9549C36.123 51.0281 35.7625 49.9296 35.6939 48.6594H38.8864C38.9482 49.4215 39.1953 50.0566 39.6278 50.5646C40.0672 51.0658 40.6268 51.44 41.3065 51.6871C41.993 51.9274 42.7448 52.0476 43.5618 52.0476C44.4612 52.0476 45.261 51.9068 45.9613 51.6254C46.6684 51.337 47.2246 50.9388 47.6296 50.4308C48.0347 49.9158 48.2372 49.3151 48.2372 48.6286C48.2372 48.0038 48.0587 47.4923 47.7017 47.0941C47.3516 46.6959 46.8744 46.3664 46.2702 46.1055C45.6729 45.8446 44.9967 45.6146 44.2415 45.4155L41.7493 44.7358C40.0604 44.2758 38.7216 43.5995 37.733 42.707C36.7512 41.8145 36.2603 40.6336 36.2603 39.1644C36.2603 37.9492 36.5898 36.8885 37.2489 35.9822C37.908 35.076 38.8005 34.3723 39.9265 33.8711C41.0524 33.363 42.3226 33.109 43.7369 33.109C45.1649 33.109 46.4247 33.3596 47.5163 33.8608C48.6148 34.362 49.4799 35.052 50.1115 35.9308C50.7431 36.8027 51.0727 37.805 51.1001 38.9379H48.0312Z" fill="white"/>
</svg>
