<svg width="23" height="28" viewBox="0 0 23 28" fill="none" xmlns="http://www.w3.org/2000/svg">
<path d="M11.6735 14.1465C12.4126 14.1465 13.0456 13.8831 13.5725 13.3563C14.0984 12.8303 14.3614 12.1978 14.3614 11.4586C14.3614 10.7195 14.0984 10.0865 13.5725 9.55962C13.0456 9.03369 12.4126 8.77073 11.6735 8.77073C10.9343 8.77073 10.3017 9.03369 9.77581 9.55962C9.24898 10.0865 8.98557 10.7195 8.98557 11.4586C8.98557 12.1978 9.24898 12.8303 9.77581 13.3563C10.3017 13.8831 10.9343 14.1465 11.6735 14.1465ZM11.6735 24.0245C14.4062 21.5158 16.4333 19.2365 17.7548 17.1865C19.0764 15.1375 19.7372 13.3178 19.7372 11.7274C19.7372 9.28591 18.9586 7.28656 17.4014 5.72937C15.8451 4.17308 13.9358 3.39493 11.6735 3.39493C9.41115 3.39493 7.5014 4.17308 5.94421 5.72937C4.38792 7.28656 3.60977 9.28591 3.60977 11.7274C3.60977 13.3178 4.27055 15.1375 5.5921 17.1865C6.91365 19.2365 8.94077 21.5158 11.6735 24.0245ZM11.6735 27.082C11.4943 27.082 11.3151 27.0484 11.1359 26.9812C10.9567 26.914 10.7999 26.8244 10.6655 26.7124C7.39523 23.823 4.95372 21.1409 3.34098 18.6662C1.72824 16.1907 0.921875 13.8777 0.921875 11.7274C0.921875 8.36754 2.00286 5.69084 4.16482 3.69732C6.32589 1.70379 8.82878 0.707031 11.6735 0.707031C14.5182 0.707031 17.021 1.70379 19.1821 3.69732C21.3441 5.69084 22.4251 8.36754 22.4251 11.7274C22.4251 13.8777 21.6187 16.1907 20.006 18.6662C18.3932 21.1409 15.9517 23.823 12.6814 26.7124C12.547 26.8244 12.3902 26.914 12.211 26.9812C12.0319 27.0484 11.8527 27.082 11.6735 27.082Z" fill="#ADADAD"/>
</svg>
