<svg width="23" height="23" viewBox="0 0 23 23" fill="none" xmlns="http://www.w3.org/2000/svg">
<path d="M3.42188 19.7127H7.54688V12.1016H15.7969V19.7127H19.9219V8.29609L11.6719 2.5878L3.42188 8.29609V19.7127ZM3.42188 22.2497C2.66562 22.2497 2.01846 22.0015 1.48037 21.5051C0.941375 21.0078 0.671875 20.4104 0.671875 19.7127V8.29609C0.671875 7.8944 0.7695 7.51385 0.96475 7.15444C1.15908 6.79503 1.42813 6.49904 1.77188 6.26648L10.0219 0.558185C10.274 0.389051 10.5375 0.262199 10.8125 0.177632C11.0875 0.0930648 11.374 0.0507812 11.6719 0.0507812C11.9698 0.0507812 12.2563 0.0930648 12.5312 0.177632C12.8062 0.262199 13.0698 0.389051 13.3219 0.558185L21.5719 6.26648C21.9156 6.49904 22.1851 6.79503 22.3804 7.15444C22.5747 7.51385 22.6719 7.8944 22.6719 8.29609V19.7127C22.6719 20.4104 22.4028 21.0078 21.8647 21.5051C21.3258 22.0015 20.6781 22.2497 19.9219 22.2497H13.0469V14.6386H10.2969V22.2497H3.42188Z" fill="#ADADAD"/>
</svg>
