<svg width="24" height="25" viewBox="0 0 24 25" fill="none" xmlns="http://www.w3.org/2000/svg">
<path d="M23.1623 7.78377C23.1493 6.80859 22.9666 5.8431 22.6222 4.9305C22.3236 4.16072 21.8675 3.46163 21.2831 2.87788C20.6987 2.29414 19.9988 1.83858 19.2281 1.54031C18.3262 1.20214 17.3733 1.01928 16.4102 0.999528C15.1701 0.944162 14.7769 0.928711 11.629 0.928711C8.48106 0.928711 8.07758 0.928711 6.84651 0.999528C5.88378 1.01943 4.9314 1.20228 4.02988 1.54031C3.25909 1.83837 2.55908 2.29386 1.97462 2.87763C1.39017 3.4614 0.934155 4.1606 0.635748 4.9305C0.296504 5.83068 0.113832 6.78218 0.0956257 7.74385C0.0401955 8.98379 0.0234375 9.3765 0.0234375 12.5208C0.0234375 15.665 0.0234375 16.0667 0.0956257 17.2977C0.114962 18.2608 0.296721 19.211 0.635748 20.1136C0.934656 20.8833 1.39101 21.5822 1.97566 22.1657C2.56031 22.7492 3.26039 23.2045 4.03117 23.5025C4.93022 23.8543 5.88277 24.0502 6.8478 24.0819C8.08918 24.1373 8.48235 24.154 11.6303 24.154C14.7782 24.154 15.1817 24.154 16.4127 24.0819C17.3759 24.063 18.3288 23.8805 19.2307 23.5424C20.0011 23.2438 20.7009 22.7881 21.2852 22.2044C21.8696 21.6207 22.3258 20.9218 22.6248 20.1522C22.9638 19.2509 23.1456 18.3007 23.1649 17.3363C23.2204 16.0976 23.2371 15.7049 23.2371 12.5594C23.2345 9.41513 23.2345 9.01598 23.1623 7.78377ZM11.6213 18.4668C8.32895 18.4668 5.66185 15.8028 5.66185 12.5143C5.66185 9.22585 8.32895 6.56186 11.6213 6.56186C13.2018 6.56186 14.7176 7.18899 15.8352 8.30529C16.9528 9.4216 17.5806 10.9356 17.5806 12.5143C17.5806 14.093 16.9528 15.607 15.8352 16.7234C14.7176 17.8397 13.2018 18.4668 11.6213 18.4668ZM17.8178 7.72969C17.6353 7.72986 17.4545 7.69407 17.2858 7.62438C17.1172 7.55469 16.9639 7.45245 16.8348 7.32353C16.7058 7.19461 16.6034 7.04153 16.5336 6.87305C16.4639 6.70457 16.428 6.524 16.4282 6.34168C16.4282 6.15949 16.4641 5.97908 16.5339 5.81076C16.6037 5.64244 16.7061 5.4895 16.835 5.36067C16.964 5.23184 17.1171 5.12965 17.2857 5.05993C17.4542 4.9902 17.6348 4.95432 17.8172 4.95432C17.9996 4.95432 18.1802 4.9902 18.3487 5.05993C18.5172 5.12965 18.6704 5.23184 18.7993 5.36067C18.9283 5.4895 19.0306 5.64244 19.1004 5.81076C19.1702 5.97908 19.2062 6.15949 19.2062 6.34168C19.2062 7.10908 18.5848 7.72969 17.8178 7.72969Z" fill="white"/>
<path d="M11.6133 16.3826C13.7512 16.3826 15.4844 14.6515 15.4844 12.516C15.4844 10.3805 13.7512 8.64941 11.6133 8.64941C9.47534 8.64941 7.74219 10.3805 7.74219 12.516C7.74219 14.6515 9.47534 16.3826 11.6133 16.3826Z" fill="white"/>
</svg>
