<svg width="17" height="21" viewBox="0 0 17 21" fill="none" xmlns="http://www.w3.org/2000/svg">
<path d="M8.71094 10.5703C9.26094 10.5703 9.73194 10.3743 10.1239 9.98231C10.5153 9.59098 10.7109 9.12031 10.7109 8.57031C10.7109 8.02031 10.5153 7.54931 10.1239 7.15731C9.73194 6.76598 9.26094 6.57031 8.71094 6.57031C8.16094 6.57031 7.69027 6.76598 7.29894 7.15731C6.90694 7.54931 6.71094 8.02031 6.71094 8.57031C6.71094 9.12031 6.90694 9.59098 7.29894 9.98231C7.69027 10.3743 8.16094 10.5703 8.71094 10.5703ZM8.71094 20.1953C8.5776 20.1953 8.44427 20.1703 8.31094 20.1203C8.1776 20.0703 8.06094 20.0036 7.96094 19.9203C5.5276 17.7703 3.71094 15.7746 2.51094 13.9333C1.31094 12.0913 0.710938 10.3703 0.710938 8.77031C0.710938 6.27031 1.51527 4.27865 3.12394 2.79531C4.73194 1.31198 6.59427 0.570312 8.71094 0.570312C10.8276 0.570312 12.6899 1.31198 14.2979 2.79531C15.9066 4.27865 16.7109 6.27031 16.7109 8.77031C16.7109 10.3703 16.1109 12.0913 14.9109 13.9333C13.7109 15.7746 11.8943 17.7703 9.46094 19.9203C9.36094 20.0036 9.24427 20.0703 9.11094 20.1203C8.9776 20.1703 8.84427 20.1953 8.71094 20.1953Z" fill="#FE5D02"/>
</svg>
