<svg width="27" height="27" viewBox="0 0 27 27" fill="none" xmlns="http://www.w3.org/2000/svg">
<path d="M20.8377 19.0847L26.1504 24.3962L24.3952 26.1513L19.0838 20.8387C17.1075 22.4229 14.6493 23.2846 12.1164 23.281C5.95401 23.281 0.952667 18.2797 0.952667 12.1173C0.952667 5.95495 5.95401 0.953613 12.1164 0.953613C18.2787 0.953613 23.2801 5.95495 23.2801 12.1173C23.2837 14.6502 22.422 17.1084 20.8377 19.0847ZM18.3494 18.1643C19.9237 16.5454 20.8028 14.3754 20.7993 12.1173C20.7993 7.31941 16.913 3.43444 12.1164 3.43444C7.31846 3.43444 3.43349 7.31941 3.43349 12.1173C3.43349 16.914 7.31846 20.8002 12.1164 20.8002C14.3745 20.8038 16.5445 19.9246 18.1634 18.3504L18.3494 18.1643Z" fill="white"/>
</svg>
