<svg width="27" height="26" viewBox="0 0 27 26" fill="none" xmlns="http://www.w3.org/2000/svg">
<path d="M11.5119 1.48691C12.1107 -0.355707 14.7175 -0.355707 15.3162 1.48691L17.0992 6.97465C17.367 7.7987 18.1349 8.35662 19.0014 8.35662H24.7715C26.709 8.35662 27.5145 10.8358 25.9471 11.9747L21.2789 15.3663C20.578 15.8755 20.2846 16.7783 20.5524 17.6023L22.3355 23.0901C22.9342 24.9327 20.8252 26.4649 19.2578 25.3261L14.5896 21.9345C13.8887 21.4252 12.9395 21.4252 12.2385 21.9345L7.57034 25.3261C6.00292 26.4649 3.89396 24.9327 4.49266 23.0901L6.27573 17.6023C6.54348 16.7783 6.25017 15.8755 5.54919 15.3663L0.881045 11.9747C-0.686383 10.8358 0.119169 8.35662 2.05662 8.35662H7.82676C8.69322 8.35662 9.46113 7.7987 9.72888 6.97465L11.5119 1.48691Z" fill="#FE5D02"/>
</svg>
