<svg width="19" height="18" viewBox="0 0 19 18" fill="none" xmlns="http://www.w3.org/2000/svg">
<path d="M8.70519 0.83135C9.00455 -0.0899611 10.308 -0.0899632 10.6073 0.831347L12.1136 5.46732C12.2475 5.87934 12.6315 6.1583 13.0647 6.1583H17.9392C18.908 6.1583 19.3107 7.39792 18.527 7.96732L14.5834 10.8325C14.2329 11.0872 14.0863 11.5385 14.2202 11.9505L15.7265 16.5865C16.0258 17.5078 14.9713 18.274 14.1876 17.7046L10.244 14.8394C9.89355 14.5847 9.41895 14.5847 9.06847 14.8394L5.12487 17.7046C4.34116 18.274 3.28668 17.5078 3.58603 16.5865L5.09235 11.9505C5.22622 11.5385 5.07956 11.0872 4.72908 10.8325L0.785482 7.96732C0.00176811 7.39792 0.404542 6.1583 1.37327 6.1583H6.24782C6.68104 6.1583 7.065 5.87934 7.19887 5.46732L8.70519 0.83135Z" fill="#FE5D02"/>
</svg>
