<svg width="28" height="23" viewBox="0 0 28 23" fill="none" xmlns="http://www.w3.org/2000/svg">
<path d="M27.615 3.23298C26.6282 3.66973 25.5681 3.96484 24.4537 4.09823C25.6036 3.41098 26.4639 2.32933 26.874 1.05511C25.7937 1.69607 24.6113 2.14723 23.3783 2.38898C22.5491 1.50469 21.4508 0.918569 20.254 0.721614C19.0572 0.524659 17.8287 0.727891 16.7593 1.29976C15.69 1.87162 14.8396 2.78013 14.3401 3.88422C13.8407 4.98831 13.7201 6.22622 13.9972 7.40575C11.8082 7.29597 9.66669 6.72766 7.71177 5.73771C5.75685 4.74776 4.03217 3.35829 2.64966 1.65949C2.17694 2.47397 1.90513 3.41831 1.90513 4.42402C1.90461 5.32939 2.12782 6.2209 2.55497 7.01944C2.98213 7.81798 3.60001 8.49886 4.3538 9.00167C3.4796 8.97389 2.62469 8.73795 1.86022 8.31349V8.38432C1.86014 9.65414 2.29989 10.8849 3.10487 11.8677C3.90984 12.8506 5.03046 13.5249 6.27658 13.7765C5.46561 13.9957 4.61538 14.028 3.79009 13.8709C4.14167 14.9635 4.82651 15.9189 5.74875 16.6035C6.67099 17.288 7.78444 17.6673 8.93324 17.6884C6.98309 19.2175 4.57466 20.0469 2.0954 20.0433C1.65623 20.0434 1.21742 20.0178 0.78125 19.9666C3.29785 21.5828 6.22734 22.4405 9.21924 22.4372C19.3472 22.4372 24.8839 14.0586 24.8839 6.79194C24.8839 6.55585 24.878 6.31741 24.8673 6.08132C25.9443 5.3034 26.8739 4.34009 27.6126 3.23652L27.615 3.23298Z" fill="white"/>
</svg>
